<svg xmlns="http://www.w3.org/2000/svg" width="1050" height="560" viewBox="0 0 1050 560">
<style>
text{font-family:Helvetica,Arial,sans-serif;fill:#111}
.tick{font-size:12px}.label{font-size:14px}.tag{font-size:15px;font-weight:700}
</style>
<rect x="0" y="0" width="1050" height="560" fill="white"/>
<clipPath id="clip_tov_0"><rect x="110.25" y="89.60" width="861.00" height="392.00"/></clipPath>
<line x1="164.06" y1="89.60" x2="164.06" y2="481.60" stroke="#ececec" stroke-width="1"/>
<line x1="164.06" y1="481.60" x2="164.06" y2="485.60" stroke="#111" stroke-width="1"/>
<text class="tick" x="164.06" y="499.60" text-anchor="middle">20</text>
<line x1="325.50" y1="89.60" x2="325.50" y2="481.60" stroke="#ececec" stroke-width="1"/>
<line x1="325.50" y1="481.60" x2="325.50" y2="485.60" stroke="#111" stroke-width="1"/>
<text class="tick" x="325.50" y="499.60" text-anchor="middle">50</text>
<line x1="486.94" y1="89.60" x2="486.94" y2="481.60" stroke="#ececec" stroke-width="1"/>
<line x1="486.94" y1="481.60" x2="486.94" y2="485.60" stroke="#111" stroke-width="1"/>
<text class="tick" x="486.94" y="499.60" text-anchor="middle">80</text>
<line x1="648.38" y1="89.60" x2="648.38" y2="481.60" stroke="#ececec" stroke-width="1"/>
<line x1="648.38" y1="481.60" x2="648.38" y2="485.60" stroke="#111" stroke-width="1"/>
<text class="tick" x="648.38" y="499.60" text-anchor="middle">110</text>
<line x1="809.81" y1="89.60" x2="809.81" y2="481.60" stroke="#ececec" stroke-width="1"/>
<line x1="809.81" y1="481.60" x2="809.81" y2="485.60" stroke="#111" stroke-width="1"/>
<text class="tick" x="809.81" y="499.60" text-anchor="middle">140</text>
<line x1="971.25" y1="89.60" x2="971.25" y2="481.60" stroke="#ececec" stroke-width="1"/>
<line x1="971.25" y1="481.60" x2="971.25" y2="485.60" stroke="#111" stroke-width="1"/>
<text class="tick" x="971.25" y="499.60" text-anchor="middle">170</text>
<line x1="110.25" y1="481.60" x2="971.25" y2="481.60" stroke="#ececec" stroke-width="1"/>
<line x1="106.25" y1="481.60" x2="110.25" y2="481.60" stroke="#111" stroke-width="1"/>
<text class="tick" x="102.25" y="485.60" text-anchor="end">0</text>
<line x1="110.25" y1="385.52" x2="971.25" y2="385.52" stroke="#ececec" stroke-width="1"/>
<line x1="106.25" y1="385.52" x2="110.25" y2="385.52" stroke="#111" stroke-width="1"/>
<text class="tick" x="102.25" y="389.52" text-anchor="end">0.25</text>
<line x1="110.25" y1="289.44" x2="971.25" y2="289.44" stroke="#ececec" stroke-width="1"/>
<line x1="106.25" y1="289.44" x2="110.25" y2="289.44" stroke="#111" stroke-width="1"/>
<text class="tick" x="102.25" y="293.44" text-anchor="end">0.5</text>
<line x1="110.25" y1="193.36" x2="971.25" y2="193.36" stroke="#ececec" stroke-width="1"/>
<line x1="106.25" y1="193.36" x2="110.25" y2="193.36" stroke="#111" stroke-width="1"/>
<text class="tick" x="102.25" y="197.36" text-anchor="end">0.75</text>
<line x1="110.25" y1="97.29" x2="971.25" y2="97.29" stroke="#ececec" stroke-width="1"/>
<line x1="106.25" y1="97.29" x2="110.25" y2="97.29" stroke="#111" stroke-width="1"/>
<text class="tick" x="102.25" y="101.29" text-anchor="end">1</text>
<rect x="110.25" y="89.60" width="861.00" height="392.00" fill="none" stroke="#111" stroke-width="1.1"/>
<polyline points="110.25,112.88 123.70,116.65 137.16,120.38 150.61,124.07 164.06,127.74 177.52,131.38 190.97,134.99 204.42,138.57 217.88,142.14 231.33,145.69 244.78,149.22 258.23,152.73 271.69,156.23 285.14,159.72 298.59,163.20 312.05,166.67 325.50,170.13 338.95,173.59 352.41,177.05 365.86,180.51 379.31,183.97 392.77,187.44 406.22,190.91 419.67,194.39 433.12,197.89 446.58,201.40 460.03,204.93 473.48,208.48 486.94,212.06 500.39,215.66 513.84,219.29 527.30,222.96 540.75,226.66 554.20,230.41 567.66,234.20 581.11,238.04 594.56,241.94 608.02,245.91 621.47,249.94 634.92,254.04 648.38,258.23 661.83,262.50 675.28,266.87 688.73,271.34 702.19,275.93 715.64,280.65 729.09,285.50 742.55,290.50 756.00,295.68 769.45,301.03 782.91,306.59 796.36,312.37 809.81,318.40 823.27,324.70 836.72,331.31 850.17,338.26 863.62,345.60 877.08,353.37 890.53,361.61 903.98,370.40 917.44,379.80 930.89,389.87 944.34,400.68 957.80,412.29 971.25,424.74" fill="none" stroke="#0072B2" stroke-width="1.65" stroke-linejoin="round" stroke-linecap="round"  clip-path="url(#clip_tov_0)"/>
<polyline points="110.25,113.49 123.70,117.60 137.16,121.75 150.61,125.95 164.06,130.21 177.52,134.51 190.97,138.87 204.42,143.28 217.88,147.75 231.33,152.29 244.78,156.88 258.23,161.53 271.69,166.25 285.14,171.03 298.59,175.88 312.05,180.79 325.50,185.76 338.95,190.80 352.41,195.90 365.86,201.07 379.31,206.29 392.77,211.58 406.22,216.94 419.67,222.34 433.12,227.80 446.58,233.32 460.03,238.89 473.48,244.52 486.94,250.17 500.39,255.88 513.84,261.64 527.30,267.42 540.75,273.23 554.20,279.08 567.66,284.95 581.11,290.84 594.56,296.75 608.02,302.67 621.47,308.60 634.92,314.53 648.38,320.47 661.83,326.41 675.28,332.34 688.73,338.27 702.19,344.19 715.64,350.09 729.09,355.99 742.55,361.87 756.00,367.73 769.45,373.57 782.91,379.41 796.36,385.21 809.81,391.00 823.27,396.78 836.72,402.53 850.17,408.27 863.62,413.99 877.08,419.68 890.53,425.37 903.98,431.04 917.44,436.69 930.89,442.34 944.34,447.96 957.80,453.59 971.25,459.20" fill="none" stroke="#D55E00" stroke-width="1.65" stroke-linejoin="round" stroke-linecap="round"  stroke-dasharray="7.0,4.0" clip-path="url(#clip_tov_0)"/>
<text class="label" x="540.75" y="522.60" text-anchor="middle">&#916; [deg]</text>
<text class="label" x="59.25" y="285.60" text-anchor="middle" transform="rotate(-90 59.25 285.60)">turning radius r* / R</text>
<rect x="850.25" y="98.60" width="112.00" height="54.00" fill="white" stroke="#cccccc" stroke-width="1" opacity="0.94"/>
<line x1="859.25" y1="113.60" x2="886.25" y2="113.60" stroke="#0072B2" stroke-width="1.65" stroke-linecap="round"/>
<text class="tick" x="893.25" y="117.60">coordinate</text>
<line x1="859.25" y1="131.60" x2="886.25" y2="131.60" stroke="#D55E00" stroke-width="1.65" stroke-linecap="round" stroke-dasharray="7.0,4.0"/>
<text class="tick" x="893.25" y="135.60">proper</text>
</svg>